<svg xmlns="http://www.w3.org/2000/svg" viewBox="0 0 1270.08 591.03"><defs><style>.cls-1,.cls-2,.cls-3,.cls-4{fill:none;stroke-miterlimit:10;stroke-width:4px;}.cls-1{stroke:#f1ce4b;}.cls-2{stroke:#6854e4;}.cls-3{stroke:#83e8e8;}.cls-4{stroke:#d96be8;}.cls-5{fill:#f1ce4b;}.cls-6{fill:#6854e4;}.cls-7{fill:#d96be8;}.cls-8{fill:#83e8e8;}</style></defs><title>Asset 1</title><g id="Layer_2" data-name="Layer 2"><g id="BACKGROUND"><polygon class="cls-1" points="545.65 112.03 531.24 107.67 535.59 93.26 524.84 90.01 520.48 104.42 506.07 100.07 502.82 110.82 517.23 115.18 512.88 129.59 523.64 132.84 527.99 118.43 542.4 122.78 545.65 112.03"/><polygon class="cls-2" points="333.47 547.59 327.55 533.75 341.39 527.83 336.97 517.5 323.13 523.42 317.2 509.58 306.88 514 312.8 527.85 298.96 533.77 303.38 544.1 317.22 538.17 323.14 552.01 333.47 547.59"/><polygon class="cls-3" points="1163.34 185.01 1163.04 169.96 1178.1 169.66 1177.87 158.43 1162.82 158.72 1162.53 143.67 1151.29 143.89 1151.59 158.94 1136.54 159.24 1136.76 170.47 1151.81 170.18 1152.11 185.23 1163.34 185.01"/><polygon class="cls-4" points="1049.99 513.9 1031.39 508.28 1037.01 489.67 1023.12 485.48 1017.5 504.08 998.89 498.46 994.7 512.35 1013.3 517.97 1007.68 536.58 1021.57 540.77 1027.19 522.17 1045.8 527.79 1049.99 513.9"/><polygon class="cls-1" points="260.29 282.79 245.88 278.44 250.23 264.03 239.48 260.78 235.12 275.19 220.71 270.83 217.46 281.59 231.87 285.94 227.52 300.35 238.27 303.6 242.63 289.19 257.04 293.55 260.29 282.79"/><polygon class="cls-2" points="1154.45 583.99 1148.53 570.14 1162.37 564.22 1157.94 553.89 1144.1 559.82 1138.18 545.98 1127.85 550.4 1133.78 564.24 1119.93 570.16 1124.36 580.49 1138.19 574.57 1144.12 588.41 1154.45 583.99"/><polygon class="cls-3" points="764.98 449.65 764.68 434.6 779.74 434.3 779.51 423.07 764.46 423.37 764.17 408.31 752.93 408.54 753.23 423.59 738.18 423.88 738.4 435.12 753.45 434.82 753.75 449.87 764.98 449.65"/><polygon class="cls-4" points="1083.22 266.85 1064.61 261.23 1070.23 242.63 1056.35 238.43 1050.72 257.04 1032.12 251.41 1027.92 265.3 1046.53 270.92 1040.91 289.53 1054.79 293.72 1060.42 275.12 1079.02 280.74 1083.22 266.85"/><circle class="cls-3" cx="389.55" cy="117.45" r="19.28"/><circle class="cls-4" cx="1003.35" cy="117.45" r="19.28"/><rect class="cls-1" x="807.4" y="135.21" width="15.91" height="15.91" transform="translate(340.04 -534.61) rotate(45)"/><rect class="cls-1" x="414.01" y="426.31" width="25" height="25" transform="translate(435.21 -173.06) rotate(45)"/><rect class="cls-2" x="121.57" y="239.92" width="25" height="25" transform="translate(217.76 -20.87) rotate(45)"/><polygon class="cls-4" points="678.28 150.7 668.92 115.75 643.34 141.34 678.28 150.7"/><polygon class="cls-1" points="279.36 5.7 243.23 7.49 262.85 37.89 279.36 5.7"/><polygon class="cls-2" points="641.31 517.75 671.51 497.82 639.16 481.63 641.31 517.75"/><polygon class="cls-2" points="1121.74 67.84 1151.94 47.92 1119.59 31.73 1121.74 67.84"/><line class="cls-3" x1="883.17" y1="406.59" x2="909.65" y2="442.96"/><line class="cls-3" x1="868.88" y1="416.99" x2="895.36" y2="453.36"/><line class="cls-3" x1="130.72" y1="500.18" x2="97.35" y2="530.35"/><line class="cls-3" x1="118.87" y1="487.07" x2="85.5" y2="517.24"/><line class="cls-4" x1="207.93" y1="136.74" x2="249.23" y2="118.9"/><line class="cls-4" x1="214.94" y1="152.96" x2="256.24" y2="135.12"/><polyline class="cls-1" points="972.82 376.97 989.85 384.97 1006.88 376.97 1023.91 384.97 1040.95 376.97 1057.98 384.97"/><polyline class="cls-4" points="1153.85 420.77 1175.91 428.77 1197.97 420.77 1220.03 428.77 1242.09 420.77 1264.16 428.77"/><polyline class="cls-2" points="1153.85 397.21 1175.91 405.21 1197.97 397.21 1220.03 405.21 1242.09 397.21 1264.16 405.21"/><polyline class="cls-4" points="5.91 160.74 27.98 168.74 50.03 160.74 72.1 168.74 94.16 160.74 116.22 168.74"/><polyline class="cls-2" points="5.91 137.18 27.98 145.18 50.03 137.18 72.1 145.18 94.16 137.18 116.22 145.18"/><polyline class="cls-4" points="182.77 517.7 201.51 516.12 212.26 500.67 231.01 499.08 241.76 483.63 260.51 482.04"/><polyline class="cls-3" points="727.48 75.83 746.22 74.25 756.97 58.8 775.71 57.21 786.46 41.76 805.22 40.16"/><polyline class="cls-3" points="235.79 411.65 254.54 410.07 265.29 394.62 284.03 393.03 294.78 377.58 313.54 375.99"/><path class="cls-5" d="M374.33,2.38A2.39,2.39,0,1,1,372,0,2.38,2.38,0,0,1,374.33,2.38Z"/><path class="cls-5" d="M390.09,2.38A2.38,2.38,0,1,1,387.71,0,2.37,2.37,0,0,1,390.09,2.38Z"/><path class="cls-5" d="M405.86,2.38A2.38,2.38,0,1,1,403.48,0,2.37,2.37,0,0,1,405.86,2.38Z"/><path class="cls-5" d="M421.63,2.38A2.38,2.38,0,1,1,419.25,0,2.38,2.38,0,0,1,421.63,2.38Z"/><path class="cls-5" d="M437.4,2.38A2.39,2.39,0,1,1,435,0,2.38,2.38,0,0,1,437.4,2.38Z"/><path class="cls-5" d="M453.16,2.38A2.38,2.38,0,1,1,450.78,0,2.37,2.37,0,0,1,453.16,2.38Z"/><path class="cls-5" d="M468.93,2.38A2.38,2.38,0,1,1,466.55,0,2.37,2.37,0,0,1,468.93,2.38Z"/><path class="cls-5" d="M484.7,2.38A2.38,2.38,0,1,1,482.32,0,2.38,2.38,0,0,1,484.7,2.38Z"/><path class="cls-5" d="M500.47,2.38A2.39,2.39,0,1,1,498.09,0,2.38,2.38,0,0,1,500.47,2.38Z"/><circle class="cls-5" cx="379.93" cy="14.86" r="2.38"/><circle class="cls-5" cx="395.7" cy="14.86" r="2.38"/><path class="cls-5" d="M413.85,14.86a2.38,2.38,0,1,1-2.38-2.38A2.39,2.39,0,0,1,413.85,14.86Z"/><path class="cls-5" d="M429.62,14.86a2.38,2.38,0,1,1-2.38-2.38A2.39,2.39,0,0,1,429.62,14.86Z"/><path class="cls-5" d="M445.39,14.86A2.39,2.39,0,1,1,443,12.48,2.39,2.39,0,0,1,445.39,14.86Z"/><circle class="cls-5" cx="458.77" cy="14.86" r="2.38"/><path class="cls-5" d="M476.92,14.86a2.38,2.38,0,1,1-2.38-2.38A2.39,2.39,0,0,1,476.92,14.86Z"/><path class="cls-5" d="M492.69,14.86a2.38,2.38,0,1,1-2.38-2.38A2.39,2.39,0,0,1,492.69,14.86Z"/><path class="cls-5" d="M508.46,14.86a2.39,2.39,0,1,1-2.39-2.38A2.39,2.39,0,0,1,508.46,14.86Z"/><path class="cls-5" d="M4.76,405.69a2.38,2.38,0,1,1-2.38-2.38A2.38,2.38,0,0,1,4.76,405.69Z"/><path class="cls-5" d="M20.53,405.69a2.38,2.38,0,1,1-2.38-2.38A2.39,2.39,0,0,1,20.53,405.69Z"/><path class="cls-5" d="M36.3,405.69a2.38,2.38,0,1,1-2.38-2.38A2.39,2.39,0,0,1,36.3,405.69Z"/><path class="cls-5" d="M52.07,405.69a2.39,2.39,0,1,1-2.39-2.38A2.39,2.39,0,0,1,52.07,405.69Z"/><path class="cls-5" d="M67.83,405.69a2.38,2.38,0,1,1-2.38-2.38A2.38,2.38,0,0,1,67.83,405.69Z"/><path class="cls-5" d="M83.6,405.69a2.38,2.38,0,1,1-2.38-2.38A2.39,2.39,0,0,1,83.6,405.69Z"/><path class="cls-5" d="M99.37,405.69A2.38,2.38,0,1,1,97,403.31,2.39,2.39,0,0,1,99.37,405.69Z"/><path class="cls-5" d="M115.14,405.69a2.39,2.39,0,1,1-2.39-2.38A2.39,2.39,0,0,1,115.14,405.69Z"/><path class="cls-5" d="M130.9,405.69a2.38,2.38,0,1,1-2.38-2.38A2.38,2.38,0,0,1,130.9,405.69Z"/><path class="cls-5" d="M12.75,418.17a2.38,2.38,0,1,1-2.38-2.38A2.37,2.37,0,0,1,12.75,418.17Z"/><path class="cls-5" d="M28.52,418.17a2.38,2.38,0,1,1-2.38-2.38A2.38,2.38,0,0,1,28.52,418.17Z"/><path class="cls-5" d="M44.29,418.17a2.39,2.39,0,1,1-2.39-2.38A2.38,2.38,0,0,1,44.29,418.17Z"/><path class="cls-5" d="M60.05,418.17a2.38,2.38,0,1,1-2.38-2.38A2.37,2.37,0,0,1,60.05,418.17Z"/><path class="cls-5" d="M75.82,418.17a2.38,2.38,0,1,1-2.38-2.38A2.37,2.37,0,0,1,75.82,418.17Z"/><path class="cls-5" d="M91.59,418.17a2.38,2.38,0,1,1-2.38-2.38A2.38,2.38,0,0,1,91.59,418.17Z"/><path class="cls-5" d="M107.36,418.17a2.39,2.39,0,1,1-2.38-2.38A2.38,2.38,0,0,1,107.36,418.17Z"/><path class="cls-5" d="M123.12,418.17a2.38,2.38,0,1,1-2.38-2.38A2.37,2.37,0,0,1,123.12,418.17Z"/><path class="cls-5" d="M138.89,418.17a2.38,2.38,0,1,1-2.38-2.38A2.37,2.37,0,0,1,138.89,418.17Z"/><path class="cls-5" d="M1136,479.6a2.38,2.38,0,1,1-2.38-2.38A2.38,2.38,0,0,1,1136,479.6Z"/><path class="cls-5" d="M1151.72,479.6a2.39,2.39,0,1,1-2.38-2.38A2.38,2.38,0,0,1,1151.72,479.6Z"/><path class="cls-5" d="M1167.48,479.6a2.38,2.38,0,1,1-2.38-2.38A2.37,2.37,0,0,1,1167.48,479.6Z"/><path class="cls-5" d="M1183.25,479.6a2.38,2.38,0,1,1-2.38-2.38A2.37,2.37,0,0,1,1183.25,479.6Z"/><path class="cls-5" d="M1199,479.6a2.38,2.38,0,1,1-2.38-2.38A2.38,2.38,0,0,1,1199,479.6Z"/><path class="cls-5" d="M1214.79,479.6a2.38,2.38,0,1,1-2.38-2.38A2.38,2.38,0,0,1,1214.79,479.6Z"/><path class="cls-5" d="M1230.56,479.6a2.39,2.39,0,1,1-2.39-2.38A2.38,2.38,0,0,1,1230.56,479.6Z"/><path class="cls-5" d="M1246.32,479.6a2.38,2.38,0,1,1-2.38-2.38A2.37,2.37,0,0,1,1246.32,479.6Z"/><path class="cls-5" d="M1262.09,479.6a2.38,2.38,0,1,1-2.38-2.38A2.38,2.38,0,0,1,1262.09,479.6Z"/><path class="cls-5" d="M1143.94,492.08a2.38,2.38,0,1,1-2.38-2.38A2.38,2.38,0,0,1,1143.94,492.08Z"/><path class="cls-5" d="M1159.71,492.08a2.39,2.39,0,1,1-2.39-2.38A2.38,2.38,0,0,1,1159.71,492.08Z"/><path class="cls-5" d="M1175.47,492.08a2.38,2.38,0,1,1-2.38-2.38A2.37,2.37,0,0,1,1175.47,492.08Z"/><path class="cls-5" d="M1191.24,492.08a2.38,2.38,0,1,1-2.38-2.38A2.38,2.38,0,0,1,1191.24,492.08Z"/><path class="cls-5" d="M1207,492.08a2.38,2.38,0,1,1-2.38-2.38A2.38,2.38,0,0,1,1207,492.08Z"/><path class="cls-5" d="M1222.78,492.08a2.39,2.39,0,1,1-2.39-2.38A2.38,2.38,0,0,1,1222.78,492.08Z"/><path class="cls-5" d="M1238.54,492.08a2.38,2.38,0,1,1-2.38-2.38A2.37,2.37,0,0,1,1238.54,492.08Z"/><path class="cls-5" d="M1254.31,492.08a2.38,2.38,0,1,1-2.38-2.38A2.37,2.37,0,0,1,1254.31,492.08Z"/><path class="cls-5" d="M1270.08,492.08a2.38,2.38,0,1,1-2.38-2.38A2.38,2.38,0,0,1,1270.08,492.08Z"/><path class="cls-6" d="M761.57,515a2.39,2.39,0,1,1-2.39-2.38A2.38,2.38,0,0,1,761.57,515Z"/><path class="cls-6" d="M777.33,515a2.38,2.38,0,1,1-2.38-2.38A2.37,2.37,0,0,1,777.33,515Z"/><path class="cls-6" d="M793.1,515a2.38,2.38,0,1,1-2.38-2.38A2.38,2.38,0,0,1,793.1,515Z"/><path class="cls-6" d="M808.87,515a2.38,2.38,0,1,1-2.38-2.38A2.38,2.38,0,0,1,808.87,515Z"/><path class="cls-6" d="M824.64,515a2.39,2.39,0,1,1-2.39-2.38A2.38,2.38,0,0,1,824.64,515Z"/><path class="cls-6" d="M840.4,515a2.38,2.38,0,1,1-2.38-2.38A2.37,2.37,0,0,1,840.4,515Z"/><path class="cls-6" d="M856.17,515a2.38,2.38,0,1,1-2.38-2.38A2.38,2.38,0,0,1,856.17,515Z"/><path class="cls-6" d="M871.94,515a2.38,2.38,0,1,1-2.38-2.38A2.38,2.38,0,0,1,871.94,515Z"/><path class="cls-6" d="M887.71,515a2.39,2.39,0,1,1-2.39-2.38A2.38,2.38,0,0,1,887.71,515Z"/><path class="cls-6" d="M769.55,527.43a2.38,2.38,0,1,1-2.38-2.38A2.37,2.37,0,0,1,769.55,527.43Z"/><path class="cls-6" d="M785.32,527.43a2.38,2.38,0,1,1-2.38-2.38A2.37,2.37,0,0,1,785.32,527.43Z"/><path class="cls-6" d="M801.09,527.43a2.38,2.38,0,1,1-2.38-2.38A2.38,2.38,0,0,1,801.09,527.43Z"/><path class="cls-6" d="M816.86,527.43a2.39,2.39,0,1,1-2.38-2.38A2.38,2.38,0,0,1,816.86,527.43Z"/><path class="cls-6" d="M832.62,527.43a2.38,2.38,0,1,1-2.38-2.38A2.37,2.37,0,0,1,832.62,527.43Z"/><path class="cls-6" d="M848.39,527.43a2.38,2.38,0,1,1-2.38-2.38A2.37,2.37,0,0,1,848.39,527.43Z"/><path class="cls-6" d="M864.16,527.43a2.38,2.38,0,1,1-2.38-2.38A2.38,2.38,0,0,1,864.16,527.43Z"/><path class="cls-6" d="M879.93,527.43a2.39,2.39,0,1,1-2.38-2.38A2.38,2.38,0,0,1,879.93,527.43Z"/><path class="cls-6" d="M895.69,527.43a2.38,2.38,0,1,1-2.38-2.38A2.37,2.37,0,0,1,895.69,527.43Z"/><path class="cls-7" d="M986.75,16.84a2.38,2.38,0,1,1-2.38-2.38A2.38,2.38,0,0,1,986.75,16.84Z"/><path class="cls-7" d="M1002.52,16.84a2.38,2.38,0,1,1-2.38-2.38A2.38,2.38,0,0,1,1002.52,16.84Z"/><path class="cls-7" d="M1018.29,16.84a2.39,2.39,0,1,1-2.39-2.38A2.38,2.38,0,0,1,1018.29,16.84Z"/><path class="cls-7" d="M986.76,28.85a2.38,2.38,0,1,1-2.3-2.47A2.38,2.38,0,0,1,986.76,28.85Z"/><path class="cls-7" d="M1002.52,29.41a2.38,2.38,0,1,1-2.3-2.46A2.4,2.4,0,0,1,1002.52,29.41Z"/><path class="cls-7" d="M1018.27,30a2.38,2.38,0,1,1-2.29-2.47A2.37,2.37,0,0,1,1018.27,30Z"/><path class="cls-7" d="M1166.71,249.83a2.38,2.38,0,1,1-2.38-2.38A2.38,2.38,0,0,1,1166.71,249.83Z"/><path class="cls-7" d="M1182.48,249.83a2.38,2.38,0,1,1-2.38-2.38A2.39,2.39,0,0,1,1182.48,249.83Z"/><path class="cls-7" d="M1198.25,249.83a2.39,2.39,0,1,1-2.38-2.38A2.39,2.39,0,0,1,1198.25,249.83Z"/><path class="cls-7" d="M1166.72,261.83a2.38,2.38,0,1,1-2.29-2.46A2.39,2.39,0,0,1,1166.72,261.83Z"/><path class="cls-7" d="M1182.48,262.4a2.38,2.38,0,1,1-2.3-2.47A2.38,2.38,0,0,1,1182.48,262.4Z"/><path class="cls-7" d="M1198.24,263a2.38,2.38,0,1,1-2.3-2.46A2.4,2.4,0,0,1,1198.24,263Z"/><path class="cls-8" d="M494.09,527.37a2.38,2.38,0,1,1,2.38-2.38A2.39,2.39,0,0,1,494.09,527.37Z"/><path class="cls-8" d="M494.09,543.14a2.39,2.39,0,1,1,2.38-2.38A2.39,2.39,0,0,1,494.09,543.14Z"/><path class="cls-8" d="M494.09,558.9a2.38,2.38,0,1,1,2.38-2.38A2.38,2.38,0,0,1,494.09,558.9Z"/><path class="cls-8" d="M482.09,527.38a2.38,2.38,0,1,1,2.46-2.3A2.39,2.39,0,0,1,482.09,527.38Z"/><path class="cls-8" d="M481.52,543.14a2.38,2.38,0,1,1,2.47-2.3A2.39,2.39,0,0,1,481.52,543.14Z"/><path class="cls-8" d="M481,558.89a2.38,2.38,0,1,1,2.46-2.29A2.38,2.38,0,0,1,481,558.89Z"/><path class="cls-8" d="M494.09,480.77a2.38,2.38,0,1,1,2.38-2.38A2.38,2.38,0,0,1,494.09,480.77Z"/><path class="cls-8" d="M494.09,496.54a2.38,2.38,0,1,1,2.38-2.38A2.39,2.39,0,0,1,494.09,496.54Z"/><path class="cls-8" d="M494.09,512.31a2.38,2.38,0,1,1,2.38-2.38A2.39,2.39,0,0,1,494.09,512.31Z"/><path class="cls-8" d="M482.09,480.78a2.38,2.38,0,1,1,2.46-2.29A2.39,2.39,0,0,1,482.09,480.78Z"/><path class="cls-8" d="M481.52,496.54a2.38,2.38,0,1,1,2.47-2.3A2.38,2.38,0,0,1,481.52,496.54Z"/><path class="cls-8" d="M481,512.3a2.38,2.38,0,1,1,2.46-2.3A2.39,2.39,0,0,1,481,512.3Z"/></g></g></svg>